# xmcd
#
# Track frame offsets:
#	150
#	20947
#	35797
#	55678
#	79130
#	97382
#	117516
#	139093
#	161202
#	182599
#
# Disc length: 2707
#
# Revision: 1
# Processed by: cddbd v1.5.1PL0 Copyright (c) Steve Scherf et al.
# Submitted via: dBpowerAMP V4.0
# Normalized: r0:DSETVAR1,TDELIM( - )
#
DISCID=930a910a
DTITLE=Various Artist - Juice Presents Urban 2000
DYEAR=2000
DGENRE=R&B
TTITLE0=Montell Jordan - This Is How We Do It
TTITLE1=Method Man - All I Need
TTITLE2=K-Ci and JoJo - You Bring Me Up
TTITLE3=Jay-Z - Can I Get A... (Feat. Amil and Ja Rule)
TTITLE4=Dru Hill - How Deep Is Your Love
TTITLE5=The Roots - Adrenaline
TTITLE6=Guy - Wanna Get With U
TTITLE7=Rahsaan Patterson - Spend The Night
TTITLE8=Rakim - I Know You Got Soul\
TTITLE9=Brain McKnight - Anytime
EXTD=
EXTT0=
EXTT1=
EXTT2=
EXTT3=
EXTT4=
EXTT5=
EXTT6=
EXTT7=
EXTT8=
EXTT9=
PLAYORDER=
